<svg xmlns="http://www.w3.org/2000/svg" width="71.978" height="50.578" viewBox="0 0 71.978 50.578">
  <path id="Path_3" data-name="Path 3" d="M72.953,22.084a27.792,27.792,0,0,0-2.975-13.5,9.547,9.547,0,0,0-5.624-3.27A256.219,256.219,0,0,0,36.987,4.3a256.491,256.491,0,0,0-27.269.981A9.384,9.384,0,0,0,4.944,7.7c-2.943,2.714-3.27,7.357-3.6,11.28a157.887,157.887,0,0,0,0,21.188A31.225,31.225,0,0,0,2.328,46.7a10.267,10.267,0,0,0,2.321,4.447A9.351,9.351,0,0,0,9.521,53.7,147.723,147.723,0,0,0,30.774,54.78c11.444.163,21.482,0,33.351-.916a9.417,9.417,0,0,0,5-2.55,8.142,8.142,0,0,0,1.995-3.27,34.593,34.593,0,0,0,1.7-11.117C72.953,35.1,72.953,24.045,72.953,22.084ZM29.6,38.89V18.65L48.954,28.819C43.526,31.827,36.365,35.228,29.6,38.89Z" transform="translate(-0.991 -4.258)" fill="#78a0ef"/>
</svg>
